<?xml version="1.0" encoding="UTF-8"?>
<svg width="800px" height="600px" viewBox="0 0 800 600" version="1.1" xmlns="http://www.w3.org/2000/svg">
    <g stroke="none" stroke-width="1" fill="none" fill-rule="evenodd">
        <rect fill="#F9FAFB" x="0" y="0" width="800" height="600"/>
        <!-- Dashboard Background -->
        <rect fill="#FFFFFF" x="50" y="50" width="700" height="500" rx="12"/>
        <!-- Header -->
        <rect fill="#4F46E5" x="50" y="50" width="700" height="80" rx="12"/>
        <!-- Charts -->
        <g transform="translate(80, 160)">
            <!-- Bar Chart -->
            <rect fill="#E0E7FF" x="0" y="0" width="300" height="180" rx="8"/>
            <rect fill="#4F46E5" x="20" y="140" width="30" height="20"/>
            <rect fill="#6366F1" x="60" y="100" width="30" height="60"/>
            <rect fill="#818CF8" x="100" y="60" width="30" height="100"/>
            <rect fill="#4F46E5" x="140" y="20" width="30" height="140"/>
            <!-- Pie Chart -->
            <circle fill="#E0E7FF" cx="500" cy="90" r="90"/>
            <path d="M500,90 L500,0 A90,90 0 0,1 567,135 Z" fill="#4F46E5"/>
            <path d="M500,90 L567,135 A90,90 0 0,1 433,135 Z" fill="#6366F1"/>
            <path d="M500,90 L433,135 A90,90 0 0,1 500,0 Z" fill="#818CF8"/>
        </g>
        <!-- Data Cards -->
        <g transform="translate(80, 380)">
            <rect fill="#F3F4F6" x="0" y="0" width="180" height="100" rx="8"/>
            <rect fill="#F3F4F6" x="200" y="0" width="180" height="100" rx="8"/>
            <rect fill="#F3F4F6" x="400" y="0" width="180" height="100" rx="8"/>
        </g>
    </g>
</svg>
